<?xml version="1.0" encoding="UTF-8"?>
<svg xmlns="http://www.w3.org/2000/svg" xmlns:xlink="http://www.w3.org/1999/xlink" width="504pt" height="360pt" viewBox="0 0 504 360" version="1.1">
<g id="surface65">
<rect x="0" y="0" width="504" height="360" style="fill:rgb(100%,100%,100%);fill-opacity:1;stroke:none;"/>
<rect x="0" y="0" width="504" height="360" style="fill:rgb(0%,0%,0%);fill-opacity:1;stroke:none;"/>
<path style="fill:none;stroke-width:0.75;stroke-linecap:round;stroke-linejoin:round;stroke:rgb(0%,0%,0%);stroke-opacity:1;stroke-miterlimit:10;" d="M 0 360 L 504 360 L 504 0 L 0 0 Z M 0 360 "/>
<rect x="0" y="0" width="504" height="360" style="fill:rgb(0%,0%,0%);fill-opacity:1;stroke:none;"/>
<path style="fill:none;stroke-width:0.75;stroke-linecap:round;stroke-linejoin:round;stroke:rgb(0%,0%,0%);stroke-opacity:1;stroke-miterlimit:10;" d="M 0 360 L 504 360 L 504 0 L 0 0 Z M 0 360 "/>
<path style=" stroke:none;fill-rule:nonzero;fill:rgb(0%,0%,0%);fill-opacity:1;" d="M 22.910156 89.4375 L 123.332031 89.4375 L 124.230469 89.433594 L 125.125 89.433594 L 126.023438 89.429688 L 126.917969 89.425781 L 127.816406 89.421875 L 128.710938 89.417969 L 129.609375 89.410156 L 130.503906 89.398438 L 131.402344 89.386719 L 132.300781 89.367188 L 133.195312 89.347656 L 134.09375 89.320312 L 134.988281 89.285156 L 135.886719 89.242188 L 136.78125 89.1875 L 137.679688 89.125 L 138.574219 89.046875 L 139.472656 88.953125 L 140.367188 88.84375 L 141.265625 88.710938 L 142.160156 88.558594 L 143.058594 88.382812 L 143.957031 88.179688 L 144.851562 87.941406 L 145.75 87.675781 L 146.644531 87.378906 L 147.542969 87.046875 L 148.4375 86.683594 L 149.335938 86.285156 L 150.230469 85.851562 L 151.128906 85.378906 L 152.023438 84.878906 L 152.921875 84.347656 L 153.816406 83.789062 L 154.714844 83.207031 L 155.613281 82.601562 L 156.507812 81.976562 L 157.40625 81.335938 L 158.300781 80.683594 L 159.199219 80.019531 L 160.09375 79.351562 L 160.992188 78.679688 L 161.886719 78 L 162.785156 77.316406 L 163.679688 76.625 L 164.578125 75.929688 L 165.472656 75.222656 L 166.371094 74.503906 L 167.269531 73.769531 L 168.164062 73.007812 L 169.0625 72.214844 L 169.957031 71.390625 L 170.855469 70.523438 L 171.75 69.613281 L 172.648438 68.652344 L 173.542969 67.636719 L 174.441406 66.554688 L 175.335938 65.402344 L 176.234375 64.191406 L 177.128906 62.914062 L 178.027344 61.570312 L 178.925781 60.160156 L 179.820312 58.691406 L 180.71875 57.152344 L 181.613281 55.554688 L 182.511719 53.910156 L 183.40625 52.21875 L 184.304688 50.484375 L 185.199219 48.71875 L 186.097656 46.917969 L 186.992188 45.09375 L 187.890625 43.257812 L 188.785156 41.410156 L 189.683594 39.5625 L 190.582031 37.71875 L 191.476562 35.890625 L 192.375 34.082031 L 193.269531 32.3125 L 194.167969 30.582031 L 195.0625 28.898438 L 195.960938 27.277344 L 196.855469 25.722656 L 197.753906 24.246094 L 198.648438 22.875 L 199.546875 21.609375 L 200.441406 20.453125 L 201.339844 19.421875 L 202.238281 18.519531 L 203.132812 17.753906 L 204.03125 17.140625 L 204.925781 16.714844 L 205.824219 16.453125 L 206.71875 16.363281 L 207.617188 16.445312 L 208.511719 16.703125 L 209.410156 17.140625 L 210.304688 17.769531 L 211.203125 18.59375 L 212.101562 19.585938 L 212.996094 20.742188 L 213.894531 22.050781 L 214.789062 23.503906 L 215.6875 25.085938 L 216.582031 26.804688 L 217.480469 28.628906 L 218.375 30.53125 L 219.273438 32.5 L 220.167969 34.515625 L 221.066406 36.558594 L 221.960938 38.617188 L 222.859375 40.664062 L 223.757812 42.6875 L 224.652344 44.667969 L 225.550781 46.59375 L 226.445312 48.453125 L 227.34375 50.238281 L 228.238281 51.933594 L 229.136719 53.527344 L 230.03125 55.027344 L 230.929688 56.433594 L 231.824219 57.742188 L 232.722656 58.957031 L 233.617188 60.085938 L 234.515625 61.113281 L 235.414062 62.054688 L 236.308594 62.921875 L 237.207031 63.726562 L 238.101562 64.46875 L 239 65.160156 L 239.894531 65.808594 L 240.792969 66.410156 L 241.6875 66.988281 L 242.585938 67.542969 L 243.480469 68.085938 L 244.378906 68.621094 L 245.273438 69.15625 L 246.171875 69.695312 L 247.070312 70.25 L 247.964844 70.816406 L 248.863281 71.40625 L 249.757812 72.015625 L 250.65625 72.652344 L 251.550781 73.308594 L 252.449219 73.996094 L 253.34375 74.703125 L 254.242188 75.433594 L 255.136719 76.179688 L 256.035156 76.933594 L 256.929688 77.695312 L 257.828125 78.457031 L 258.726562 79.210938 L 259.621094 79.941406 L 260.519531 80.648438 L 261.414062 81.320312 L 262.3125 81.953125 L 263.207031 82.539062 L 264.105469 83.066406 L 265 83.515625 L 265.898438 83.898438 L 266.792969 84.207031 L 267.691406 84.4375 L 268.585938 84.585938 L 269.484375 84.65625 L 270.382812 84.632812 L 271.277344 84.519531 L 272.175781 84.328125 L 273.070312 84.0625 L 273.96875 83.730469 L 274.863281 83.332031 L 275.761719 82.882812 L 276.65625 82.382812 L 277.554688 81.847656 L 278.449219 81.292969 L 279.347656 80.730469 L 280.242188 80.175781 L 281.140625 79.636719 L 282.039062 79.125 L 282.933594 78.667969 L 283.832031 78.265625 L 284.726562 77.929688 L 285.625 77.671875 L 286.519531 77.492188 L 287.417969 77.398438 L 288.3125 77.398438 L 289.210938 77.503906 L 290.105469 77.695312 L 291.003906 77.972656 L 291.898438 78.324219 L 292.796875 78.75 L 293.695312 79.238281 L 294.589844 79.785156 L 295.488281 80.375 L 296.382812 80.996094 L 297.28125 81.632812 L 298.175781 82.277344 L 299.074219 82.921875 L 299.96875 83.558594 L 300.867188 84.167969 L 301.761719 84.753906 L 302.660156 85.304688 L 303.558594 85.820312 L 304.453125 86.300781 L 305.351562 86.738281 L 306.246094 87.132812 L 307.144531 87.480469 L 308.039062 87.789062 L 308.9375 88.0625 L 309.832031 88.296875 L 310.730469 88.503906 L 311.625 88.679688 L 312.523438 88.824219 L 313.417969 88.945312 L 314.316406 89.042969 L 315.214844 89.128906 L 316.109375 89.195312 L 317.007812 89.25 L 317.902344 89.292969 L 318.800781 89.328125 L 319.695312 89.355469 L 320.59375 89.375 L 321.488281 89.390625 L 322.386719 89.402344 L 323.28125 89.414062 L 324.179688 89.421875 L 325.074219 89.425781 L 326.871094 89.433594 L 327.765625 89.433594 L 328.664062 89.4375 L 481.089844 89.4375 Z M 22.910156 89.4375 "/>
<path style="fill:none;stroke-width:2.133957;stroke-linecap:round;stroke-linejoin:round;stroke:rgb(100%,100%,100%);stroke-opacity:1;stroke-miterlimit:10;" d="M 22.910156 89.4375 L 123.332031 89.4375 L 124.230469 89.433594 L 125.125 89.433594 L 126.023438 89.429688 L 126.917969 89.425781 L 127.816406 89.421875 L 128.710938 89.417969 L 129.609375 89.410156 L 130.503906 89.398438 L 131.402344 89.386719 L 132.300781 89.367188 L 133.195312 89.347656 L 134.09375 89.320312 L 134.988281 89.285156 L 135.886719 89.242188 L 136.78125 89.1875 L 137.679688 89.125 L 138.574219 89.046875 L 139.472656 88.953125 L 140.367188 88.84375 L 141.265625 88.710938 L 142.160156 88.558594 L 143.058594 88.382812 L 143.957031 88.179688 L 144.851562 87.941406 L 145.75 87.675781 L 146.644531 87.378906 L 147.542969 87.046875 L 148.4375 86.683594 L 149.335938 86.285156 L 150.230469 85.851562 L 151.128906 85.378906 L 152.023438 84.878906 L 152.921875 84.347656 L 153.816406 83.789062 L 154.714844 83.207031 L 155.613281 82.601562 L 156.507812 81.976562 L 157.40625 81.335938 L 158.300781 80.683594 L 159.199219 80.019531 L 160.09375 79.351562 L 160.992188 78.679688 L 161.886719 78 L 162.785156 77.316406 L 163.679688 76.625 L 164.578125 75.929688 L 165.472656 75.222656 L 166.371094 74.503906 L 167.269531 73.769531 L 168.164062 73.007812 L 169.0625 72.214844 L 169.957031 71.390625 L 170.855469 70.523438 L 171.75 69.613281 L 172.648438 68.652344 L 173.542969 67.636719 L 174.441406 66.554688 L 175.335938 65.402344 L 176.234375 64.191406 L 177.128906 62.914062 L 178.027344 61.570312 L 178.925781 60.160156 L 179.820312 58.691406 L 180.71875 57.152344 L 181.613281 55.554688 L 182.511719 53.910156 L 183.40625 52.21875 L 184.304688 50.484375 L 185.199219 48.71875 L 186.097656 46.917969 L 186.992188 45.09375 L 187.890625 43.257812 L 188.785156 41.410156 L 189.683594 39.5625 L 190.582031 37.71875 L 191.476562 35.890625 L 192.375 34.082031 L 193.269531 32.3125 L 194.167969 30.582031 L 195.0625 28.898438 L 195.960938 27.277344 L 196.855469 25.722656 L 197.753906 24.246094 L 198.648438 22.875 L 199.546875 21.609375 L 200.441406 20.453125 L 201.339844 19.421875 L 202.238281 18.519531 L 203.132812 17.753906 L 204.03125 17.140625 L 204.925781 16.714844 L 205.824219 16.453125 L 206.71875 16.363281 L 207.617188 16.445312 L 208.511719 16.703125 L 209.410156 17.140625 L 210.304688 17.769531 L 211.203125 18.59375 L 212.101562 19.585938 L 212.996094 20.742188 L 213.894531 22.050781 L 214.789062 23.503906 L 215.6875 25.085938 L 216.582031 26.804688 L 217.480469 28.628906 L 218.375 30.53125 L 219.273438 32.5 L 220.167969 34.515625 L 221.066406 36.558594 L 221.960938 38.617188 L 222.859375 40.664062 L 223.757812 42.6875 L 224.652344 44.667969 L 225.550781 46.59375 L 226.445312 48.453125 L 227.34375 50.238281 L 228.238281 51.933594 L 229.136719 53.527344 L 230.03125 55.027344 L 230.929688 56.433594 L 231.824219 57.742188 L 232.722656 58.957031 L 233.617188 60.085938 L 234.515625 61.113281 L 235.414062 62.054688 L 236.308594 62.921875 L 237.207031 63.726562 L 238.101562 64.46875 L 239 65.160156 L 239.894531 65.808594 L 240.792969 66.410156 L 241.6875 66.988281 L 242.585938 67.542969 L 243.480469 68.085938 L 244.378906 68.621094 L 245.273438 69.15625 L 246.171875 69.695312 L 247.070312 70.25 L 247.964844 70.816406 L 248.863281 71.40625 L 249.757812 72.015625 L 250.65625 72.652344 L 251.550781 73.308594 L 252.449219 73.996094 L 253.34375 74.703125 L 254.242188 75.433594 L 255.136719 76.179688 L 256.035156 76.933594 L 256.929688 77.695312 L 257.828125 78.457031 L 258.726562 79.210938 L 259.621094 79.941406 L 260.519531 80.648438 L 261.414062 81.320312 L 262.3125 81.953125 L 263.207031 82.539062 L 264.105469 83.066406 L 265 83.515625 L 265.898438 83.898438 L 266.792969 84.207031 L 267.691406 84.4375 L 268.585938 84.585938 L 269.484375 84.65625 L 270.382812 84.632812 L 271.277344 84.519531 L 272.175781 84.328125 L 273.070312 84.0625 L 273.96875 83.730469 L 274.863281 83.332031 L 275.761719 82.882812 L 276.65625 82.382812 L 277.554688 81.847656 L 278.449219 81.292969 L 279.347656 80.730469 L 280.242188 80.175781 L 281.140625 79.636719 L 282.039062 79.125 L 282.933594 78.667969 L 283.832031 78.265625 L 284.726562 77.929688 L 285.625 77.671875 L 286.519531 77.492188 L 287.417969 77.398438 L 288.3125 77.398438 L 289.210938 77.503906 L 290.105469 77.695312 L 291.003906 77.972656 L 291.898438 78.324219 L 292.796875 78.75 L 293.695312 79.238281 L 294.589844 79.785156 L 295.488281 80.375 L 296.382812 80.996094 L 297.28125 81.632812 L 298.175781 82.277344 L 299.074219 82.921875 L 299.96875 83.558594 L 300.867188 84.167969 L 301.761719 84.753906 L 302.660156 85.304688 L 303.558594 85.820312 L 304.453125 86.300781 L 305.351562 86.738281 L 306.246094 87.132812 L 307.144531 87.480469 L 308.039062 87.789062 L 308.9375 88.0625 L 309.832031 88.296875 L 310.730469 88.503906 L 311.625 88.679688 L 312.523438 88.824219 L 313.417969 88.945312 L 314.316406 89.042969 L 315.214844 89.128906 L 316.109375 89.195312 L 317.007812 89.25 L 317.902344 89.292969 L 318.800781 89.328125 L 319.695312 89.355469 L 320.59375 89.375 L 321.488281 89.390625 L 322.386719 89.402344 L 323.28125 89.414062 L 324.179688 89.421875 L 325.074219 89.425781 L 326.871094 89.433594 L 327.765625 89.433594 L 328.664062 89.4375 L 481.089844 89.4375 "/>
<path style=" stroke:none;fill-rule:nonzero;fill:rgb(0%,0%,0%);fill-opacity:1;" d="M 22.910156 174.957031 L 23.804688 174.914062 L 24.703125 174.863281 L 25.597656 174.792969 L 26.496094 174.710938 L 27.390625 174.605469 L 28.289062 174.480469 L 29.1875 174.332031 L 30.082031 174.148438 L 30.980469 173.929688 L 31.875 173.667969 L 32.773438 173.367188 L 33.667969 173.019531 L 34.566406 172.625 L 35.460938 172.175781 L 36.359375 171.664062 L 37.253906 171.09375 L 38.152344 170.464844 L 39.046875 169.785156 L 39.945312 169.054688 L 40.84375 168.273438 L 41.738281 167.449219 L 42.636719 166.589844 L 43.53125 165.707031 L 44.429688 164.816406 L 45.324219 163.925781 L 46.222656 163.050781 L 47.117188 162.207031 L 48.015625 161.410156 L 48.910156 160.6875 L 49.808594 160.039062 L 50.703125 159.480469 L 51.601562 159.023438 L 52.5 158.679688 L 53.394531 158.449219 L 54.292969 158.363281 L 55.1875 158.414062 L 56.085938 158.585938 L 56.980469 158.875 L 57.878906 159.285156 L 58.773438 159.796875 L 59.671875 160.40625 L 60.566406 161.117188 L 61.464844 161.890625 L 62.359375 162.714844 L 63.257812 163.574219 L 64.15625 164.457031 L 65.050781 165.351562 L 65.949219 166.242188 L 66.84375 167.109375 L 67.742188 167.945312 L 68.636719 168.746094 L 69.535156 169.5 L 70.429688 170.203125 L 71.328125 170.855469 L 72.222656 171.445312 L 73.121094 171.972656 L 74.015625 172.445312 L 74.914062 172.867188 L 75.8125 173.238281 L 76.707031 173.558594 L 77.605469 173.835938 L 78.5 174.066406 L 79.398438 174.257812 L 80.292969 174.421875 L 81.191406 174.558594 L 82.085938 174.671875 L 82.984375 174.765625 L 83.878906 174.835938 L 84.777344 174.894531 L 85.671875 174.941406 L 86.570312 174.976562 L 87.46875 175.003906 L 88.363281 175.027344 L 89.261719 175.042969 L 90.15625 175.058594 L 91.054688 175.066406 L 91.949219 175.074219 L 92.847656 175.078125 L 93.742188 175.082031 L 94.640625 175.085938 L 95.535156 175.085938 L 96.433594 175.089844 L 99.125 175.089844 L 100.019531 175.09375 L 114.367188 175.09375 L 115.261719 175.089844 L 118.847656 175.089844 L 119.746094 175.085938 L 120.644531 175.085938 L 121.539062 175.082031 L 122.4375 175.078125 L 123.332031 175.070312 L 124.230469 175.0625 L 125.125 175.054688 L 126.023438 175.039062 L 126.917969 175.019531 L 127.816406 174.996094 L 128.710938 174.96875 L 129.609375 174.929688 L 130.503906 174.878906 L 131.402344 174.820312 L 132.300781 174.746094 L 133.195312 174.648438 L 134.09375 174.535156 L 134.988281 174.398438 L 135.886719 174.230469 L 136.78125 174.035156 L 137.679688 173.804688 L 138.574219 173.53125 L 139.472656 173.210938 L 140.367188 172.847656 L 141.265625 172.433594 L 142.160156 171.96875 L 143.058594 171.449219 L 143.957031 170.875 L 144.851562 170.238281 L 145.75 169.550781 L 146.644531 168.8125 L 147.542969 168.03125 L 148.4375 167.207031 L 149.335938 166.351562 L 150.230469 165.46875 L 151.128906 164.570312 L 152.023438 163.667969 L 152.921875 162.769531 L 153.816406 161.894531 L 154.714844 161.042969 L 155.613281 160.230469 L 156.507812 159.472656 L 157.40625 158.777344 L 158.300781 158.140625 L 159.199219 157.574219 L 160.09375 157.070312 L 160.992188 156.632812 L 161.886719 156.253906 L 162.785156 155.945312 L 163.679688 155.675781 L 164.578125 155.433594 L 165.472656 155.210938 L 166.371094 154.984375 L 167.269531 154.742188 L 168.164062 154.460938 L 169.0625 154.113281 L 169.957031 153.683594 L 170.855469 153.152344 L 171.75 152.507812 L 172.648438 151.730469 L 173.542969 150.804688 L 174.441406 149.691406 L 175.335938 148.394531 L 176.234375 146.914062 L 177.128906 145.242188 L 178.027344 143.386719 L 178.925781 141.339844 L 179.820312 139.109375 L 180.71875 136.667969 L 181.613281 134.066406 L 182.511719 131.316406 L 183.40625 128.4375 L 184.304688 125.453125 L 185.199219 122.390625 L 186.097656 119.265625 L 186.992188 116.125 L 187.890625 113.003906 L 188.785156 109.941406 L 189.683594 106.96875 L 190.582031 104.121094 L 191.476562 101.4375 L 192.375 98.976562 L 193.269531 96.785156 L 194.167969 94.867188 L 195.0625 93.257812 L 195.960938 91.976562 L 196.855469 91.042969 L 197.753906 90.480469 L 198.648438 90.359375 L 199.546875 90.640625 L 200.441406 91.308594 L 201.339844 92.355469 L 202.238281 93.769531 L 203.132812 95.539062 L 204.03125 97.652344 L 204.925781 100.125 L 205.824219 102.863281 L 206.71875 105.839844 L 207.617188 109.015625 L 208.511719 112.359375 L 209.410156 115.828125 L 210.304688 119.390625 L 211.203125 122.996094 L 212.101562 126.597656 L 212.996094 130.15625 L 213.894531 133.644531 L 214.789062 137.027344 L 215.6875 140.277344 L 216.582031 143.34375 L 217.480469 146.210938 L 218.375 148.875 L 219.273438 151.328125 L 220.167969 153.558594 L 221.066406 155.5625 L 221.960938 157.34375 L 222.859375 158.859375 L 223.757812 160.171875 L 224.652344 161.285156 L 225.550781 162.222656 L 226.445312 162.992188 L 227.34375 163.617188 L 228.238281 164.109375 L 229.136719 164.484375 L 230.03125 164.777344 L 230.929688 165.015625 L 231.824219 165.210938 L 232.722656 165.378906 L 233.617188 165.539062 L 234.515625 165.699219 L 235.414062 165.882812 L 236.308594 166.089844 L 237.207031 166.328125 L 238.101562 166.597656 L 239 166.902344 L 239.894531 167.246094 L 240.792969 167.625 L 241.6875 168.035156 L 242.585938 168.46875 L 243.480469 168.917969 L 244.378906 169.375 L 245.273438 169.84375 L 246.171875 170.308594 L 247.070312 170.765625 L 247.964844 171.207031 L 248.863281 171.632812 L 249.757812 172.035156 L 250.65625 172.410156 L 251.550781 172.761719 L 252.449219 173.082031 L 253.34375 173.367188 L 254.242188 173.625 L 255.136719 173.855469 L 256.035156 174.058594 L 256.929688 174.234375 L 257.828125 174.386719 L 258.726562 174.515625 L 259.621094 174.625 L 260.519531 174.714844 L 261.414062 174.789062 L 262.3125 174.851562 L 263.207031 174.902344 L 264.105469 174.945312 L 265 174.972656 L 265.898438 174.996094 L 266.792969 175.011719 L 267.691406 175.023438 L 268.585938 175.03125 L 269.484375 175.03125 L 270.382812 175.027344 L 271.277344 175.015625 L 272.175781 175 L 273.070312 174.980469 L 273.96875 174.949219 L 274.863281 174.910156 L 275.761719 174.863281 L 276.65625 174.800781 L 277.554688 174.722656 L 278.449219 174.628906 L 279.347656 174.515625 L 280.242188 174.378906 L 281.140625 174.21875 L 282.039062 174.03125 L 282.933594 173.804688 L 283.832031 173.542969 L 284.726562 173.246094 L 285.625 172.910156 L 286.519531 172.53125 L 287.417969 172.109375 L 288.3125 171.640625 L 289.210938 171.121094 L 290.105469 170.558594 L 291.003906 169.957031 L 291.898438 169.3125 L 292.796875 168.636719 L 293.695312 167.929688 L 294.589844 167.195312 L 295.488281 166.445312 L 296.382812 165.691406 L 297.28125 164.9375 L 298.175781 164.199219 L 299.074219 163.480469 L 299.96875 162.792969 L 300.867188 162.160156 L 301.761719 161.582031 L 302.660156 161.066406 L 303.558594 160.625 L 304.453125 160.265625 L 305.351562 159.988281 L 306.246094 159.804688 L 307.144531 159.734375 L 308.039062 159.757812 L 308.9375 159.875 L 309.832031 160.085938 L 310.730469 160.386719 L 311.625 160.769531 L 312.523438 161.238281 L 313.417969 161.785156 L 314.316406 162.390625 L 315.214844 163.046875 L 316.109375 163.738281 L 317.007812 164.464844 L 317.902344 165.207031 L 318.800781 165.964844 L 319.695312 166.71875 L 320.59375 167.460938 L 321.488281 168.183594 L 322.386719 168.882812 L 323.28125 169.550781 L 324.179688 170.183594 L 325.074219 170.765625 L 325.972656 171.308594 L 326.871094 171.804688 L 327.765625 172.261719 L 328.664062 172.671875 L 329.558594 173.039062 L 330.457031 173.359375 L 331.351562 173.640625 L 332.25 173.882812 L 333.144531 174.09375 L 334.042969 174.273438 L 334.9375 174.429688 L 335.835938 174.558594 L 336.730469 174.664062 L 337.628906 174.75 L 338.527344 174.824219 L 339.421875 174.882812 L 340.320312 174.929688 L 341.214844 174.964844 L 342.113281 174.996094 L 343.007812 175.019531 L 343.90625 175.039062 L 344.800781 175.050781 L 345.699219 175.0625 L 346.59375 175.070312 L 347.492188 175.074219 L 348.386719 175.082031 L 349.285156 175.082031 L 350.183594 175.085938 L 351.078125 175.089844 L 354.664062 175.089844 L 355.5625 175.09375 L 481.089844 175.09375 L 22.910156 175.09375 Z M 22.910156 174.957031 "/>
<path style="fill:none;stroke-width:2.133957;stroke-linecap:round;stroke-linejoin:round;stroke:rgb(100%,100%,100%);stroke-opacity:1;stroke-miterlimit:10;" d="M 22.910156 174.957031 L 23.804688 174.914062 L 24.703125 174.863281 L 25.597656 174.792969 L 26.496094 174.710938 L 27.390625 174.605469 L 28.289062 174.480469 L 29.1875 174.332031 L 30.082031 174.148438 L 30.980469 173.929688 L 31.875 173.667969 L 32.773438 173.367188 L 33.667969 173.019531 L 34.566406 172.625 L 35.460938 172.175781 L 36.359375 171.664062 L 37.253906 171.09375 L 38.152344 170.464844 L 39.046875 169.785156 L 39.945312 169.054688 L 40.84375 168.273438 L 41.738281 167.449219 L 42.636719 166.589844 L 43.53125 165.707031 L 44.429688 164.816406 L 45.324219 163.925781 L 46.222656 163.050781 L 47.117188 162.207031 L 48.015625 161.410156 L 48.910156 160.6875 L 49.808594 160.039062 L 50.703125 159.480469 L 51.601562 159.023438 L 52.5 158.679688 L 53.394531 158.449219 L 54.292969 158.363281 L 55.1875 158.414062 L 56.085938 158.585938 L 56.980469 158.875 L 57.878906 159.285156 L 58.773438 159.796875 L 59.671875 160.40625 L 60.566406 161.117188 L 61.464844 161.890625 L 62.359375 162.714844 L 63.257812 163.574219 L 64.15625 164.457031 L 65.050781 165.351562 L 65.949219 166.242188 L 66.84375 167.109375 L 67.742188 167.945312 L 68.636719 168.746094 L 69.535156 169.5 L 70.429688 170.203125 L 71.328125 170.855469 L 72.222656 171.445312 L 73.121094 171.972656 L 74.015625 172.445312 L 74.914062 172.867188 L 75.8125 173.238281 L 76.707031 173.558594 L 77.605469 173.835938 L 78.5 174.066406 L 79.398438 174.257812 L 80.292969 174.421875 L 81.191406 174.558594 L 82.085938 174.671875 L 82.984375 174.765625 L 83.878906 174.835938 L 84.777344 174.894531 L 85.671875 174.941406 L 86.570312 174.976562 L 87.46875 175.003906 L 88.363281 175.027344 L 89.261719 175.042969 L 90.15625 175.058594 L 91.054688 175.066406 L 91.949219 175.074219 L 92.847656 175.078125 L 93.742188 175.082031 L 94.640625 175.085938 L 95.535156 175.085938 L 96.433594 175.089844 L 99.125 175.089844 L 100.019531 175.09375 L 114.367188 175.09375 L 115.261719 175.089844 L 118.847656 175.089844 L 119.746094 175.085938 L 120.644531 175.085938 L 121.539062 175.082031 L 122.4375 175.078125 L 123.332031 175.070312 L 124.230469 175.0625 L 125.125 175.054688 L 126.023438 175.039062 L 126.917969 175.019531 L 127.816406 174.996094 L 128.710938 174.96875 L 129.609375 174.929688 L 130.503906 174.878906 L 131.402344 174.820312 L 132.300781 174.746094 L 133.195312 174.648438 L 134.09375 174.535156 L 134.988281 174.398438 L 135.886719 174.230469 L 136.78125 174.035156 L 137.679688 173.804688 L 138.574219 173.53125 L 139.472656 173.210938 L 140.367188 172.847656 L 141.265625 172.433594 L 142.160156 171.96875 L 143.058594 171.449219 L 143.957031 170.875 L 144.851562 170.238281 L 145.75 169.550781 L 146.644531 168.8125 L 147.542969 168.03125 L 148.4375 167.207031 L 149.335938 166.351562 L 150.230469 165.46875 L 151.128906 164.570312 L 152.023438 163.667969 L 152.921875 162.769531 L 153.816406 161.894531 L 154.714844 161.042969 L 155.613281 160.230469 L 156.507812 159.472656 L 157.40625 158.777344 L 158.300781 158.140625 L 159.199219 157.574219 L 160.09375 157.070312 L 160.992188 156.632812 L 161.886719 156.253906 L 162.785156 155.945312 L 163.679688 155.675781 L 164.578125 155.433594 L 165.472656 155.210938 L 166.371094 154.984375 L 167.269531 154.742188 L 168.164062 154.460938 L 169.0625 154.113281 L 169.957031 153.683594 L 170.855469 153.152344 L 171.75 152.507812 L 172.648438 151.730469 L 173.542969 150.804688 L 174.441406 149.691406 L 175.335938 148.394531 L 176.234375 146.914062 L 177.128906 145.242188 L 178.027344 143.386719 L 178.925781 141.339844 L 179.820312 139.109375 L 180.71875 136.667969 L 181.613281 134.066406 L 182.511719 131.316406 L 183.40625 128.4375 L 184.304688 125.453125 L 185.199219 122.390625 L 186.097656 119.265625 L 186.992188 116.125 L 187.890625 113.003906 L 188.785156 109.941406 L 189.683594 106.96875 L 190.582031 104.121094 L 191.476562 101.4375 L 192.375 98.976562 L 193.269531 96.785156 L 194.167969 94.867188 L 195.0625 93.257812 L 195.960938 91.976562 L 196.855469 91.042969 L 197.753906 90.480469 L 198.648438 90.359375 L 199.546875 90.640625 L 200.441406 91.308594 L 201.339844 92.355469 L 202.238281 93.769531 L 203.132812 95.539062 L 204.03125 97.652344 L 204.925781 100.125 L 205.824219 102.863281 L 206.71875 105.839844 L 207.617188 109.015625 L 208.511719 112.359375 L 209.410156 115.828125 L 210.304688 119.390625 L 211.203125 122.996094 L 212.101562 126.597656 L 212.996094 130.15625 L 213.894531 133.644531 L 214.789062 137.027344 L 215.6875 140.277344 L 216.582031 143.34375 L 217.480469 146.210938 L 218.375 148.875 L 219.273438 151.328125 L 220.167969 153.558594 L 221.066406 155.5625 L 221.960938 157.34375 L 222.859375 158.859375 L 223.757812 160.171875 L 224.652344 161.285156 L 225.550781 162.222656 L 226.445312 162.992188 L 227.34375 163.617188 L 228.238281 164.109375 L 229.136719 164.484375 L 230.03125 164.777344 L 230.929688 165.015625 L 231.824219 165.210938 L 232.722656 165.378906 L 233.617188 165.539062 L 234.515625 165.699219 L 235.414062 165.882812 L 236.308594 166.089844 L 237.207031 166.328125 L 238.101562 166.597656 L 239 166.902344 L 239.894531 167.246094 L 240.792969 167.625 L 241.6875 168.035156 L 242.585938 168.46875 L 243.480469 168.917969 L 244.378906 169.375 L 245.273438 169.84375 L 246.171875 170.308594 L 247.070312 170.765625 L 247.964844 171.207031 L 248.863281 171.632812 L 249.757812 172.035156 L 250.65625 172.410156 L 251.550781 172.761719 L 252.449219 173.082031 L 253.34375 173.367188 L 254.242188 173.625 L 255.136719 173.855469 L 256.035156 174.058594 L 256.929688 174.234375 L 257.828125 174.386719 L 258.726562 174.515625 L 259.621094 174.625 L 260.519531 174.714844 L 261.414062 174.789062 L 262.3125 174.851562 L 263.207031 174.902344 L 264.105469 174.945312 L 265 174.972656 L 265.898438 174.996094 L 266.792969 175.011719 L 267.691406 175.023438 L 268.585938 175.03125 L 269.484375 175.03125 L 270.382812 175.027344 L 271.277344 175.015625 L 272.175781 175 L 273.070312 174.980469 L 273.96875 174.949219 L 274.863281 174.910156 L 275.761719 174.863281 L 276.65625 174.800781 L 277.554688 174.722656 L 278.449219 174.628906 L 279.347656 174.515625 L 280.242188 174.378906 L 281.140625 174.21875 L 282.039062 174.03125 L 282.933594 173.804688 L 283.832031 173.542969 L 284.726562 173.246094 L 285.625 172.910156 L 286.519531 172.53125 L 287.417969 172.109375 L 288.3125 171.640625 L 289.210938 171.121094 L 290.105469 170.558594 L 291.003906 169.957031 L 291.898438 169.3125 L 292.796875 168.636719 L 293.695312 167.929688 L 294.589844 167.195312 L 295.488281 166.445312 L 296.382812 165.691406 L 297.28125 164.9375 L 298.175781 164.199219 L 299.074219 163.480469 L 299.96875 162.792969 L 300.867188 162.160156 L 301.761719 161.582031 L 302.660156 161.066406 L 303.558594 160.625 L 304.453125 160.265625 L 305.351562 159.988281 L 306.246094 159.804688 L 307.144531 159.734375 L 308.039062 159.757812 L 308.9375 159.875 L 309.832031 160.085938 L 310.730469 160.386719 L 311.625 160.769531 L 312.523438 161.238281 L 313.417969 161.785156 L 314.316406 162.390625 L 315.214844 163.046875 L 316.109375 163.738281 L 317.007812 164.464844 L 317.902344 165.207031 L 318.800781 165.964844 L 319.695312 166.71875 L 320.59375 167.460938 L 321.488281 168.183594 L 322.386719 168.882812 L 323.28125 169.550781 L 324.179688 170.183594 L 325.074219 170.765625 L 325.972656 171.308594 L 326.871094 171.804688 L 327.765625 172.261719 L 328.664062 172.671875 L 329.558594 173.039062 L 330.457031 173.359375 L 331.351562 173.640625 L 332.25 173.882812 L 333.144531 174.09375 L 334.042969 174.273438 L 334.9375 174.429688 L 335.835938 174.558594 L 336.730469 174.664062 L 337.628906 174.75 L 338.527344 174.824219 L 339.421875 174.882812 L 340.320312 174.929688 L 341.214844 174.964844 L 342.113281 174.996094 L 343.007812 175.019531 L 343.90625 175.039062 L 344.800781 175.050781 L 345.699219 175.0625 L 346.59375 175.070312 L 347.492188 175.074219 L 348.386719 175.082031 L 349.285156 175.082031 L 350.183594 175.085938 L 351.078125 175.089844 L 354.664062 175.089844 L 355.5625 175.09375 L 481.089844 175.09375 "/>
<path style=" stroke:none;fill-rule:nonzero;fill:rgb(0%,0%,0%);fill-opacity:1;" d="M 22.910156 260.746094 L 124.230469 260.746094 L 125.125 260.742188 L 127.816406 260.742188 L 128.710938 260.738281 L 129.609375 260.734375 L 130.503906 260.730469 L 132.300781 260.714844 L 133.195312 260.707031 L 134.09375 260.691406 L 134.988281 260.671875 L 135.886719 260.644531 L 136.78125 260.613281 L 137.679688 260.574219 L 138.574219 260.519531 L 139.472656 260.449219 L 140.367188 260.363281 L 141.265625 260.257812 L 142.160156 260.128906 L 143.058594 259.972656 L 143.957031 259.78125 L 144.851562 259.546875 L 145.75 259.265625 L 146.644531 258.9375 L 147.542969 258.550781 L 148.4375 258.105469 L 149.335938 257.589844 L 150.230469 256.996094 L 151.128906 256.3125 L 152.023438 255.546875 L 152.921875 254.695312 L 153.816406 253.75 L 154.714844 252.714844 L 155.613281 251.582031 L 156.507812 250.347656 L 157.40625 249.015625 L 158.300781 247.597656 L 159.199219 246.09375 L 160.09375 244.515625 L 160.992188 242.867188 L 161.886719 241.15625 L 162.785156 239.375 L 163.679688 237.554688 L 164.578125 235.691406 L 165.472656 233.796875 L 166.371094 231.882812 L 167.269531 229.945312 L 168.164062 227.996094 L 169.0625 226.035156 L 169.957031 224.066406 L 170.855469 222.09375 L 171.75 220.113281 L 172.648438 218.128906 L 173.542969 216.128906 L 174.441406 214.121094 L 175.335938 212.09375 L 176.234375 210.046875 L 177.128906 207.980469 L 178.027344 205.894531 L 178.925781 203.785156 L 179.820312 201.660156 L 180.71875 199.515625 L 181.613281 197.367188 L 182.511719 195.222656 L 183.40625 193.09375 L 184.304688 190.996094 L 185.199219 188.945312 L 186.097656 186.960938 L 186.992188 185.089844 L 187.890625 183.339844 L 188.785156 181.734375 L 189.683594 180.304688 L 190.582031 179.070312 L 191.476562 178.054688 L 192.375 177.320312 L 193.269531 176.890625 L 194.167969 176.753906 L 195.0625 176.929688 L 195.960938 177.425781 L 196.855469 178.25 L 197.753906 179.40625 L 198.648438 180.949219 L 199.546875 182.820312 L 200.441406 184.992188 L 201.339844 187.445312 L 202.238281 190.15625 L 203.132812 193.101562 L 204.03125 196.253906 L 204.925781 199.597656 L 205.824219 203.054688 L 206.71875 206.585938 L 207.617188 210.160156 L 208.511719 213.734375 L 209.410156 217.277344 L 210.304688 220.734375 L 211.203125 224.0625 L 212.101562 227.242188 L 212.996094 230.242188 L 213.894531 233.042969 L 214.789062 235.621094 L 215.6875 237.960938 L 216.582031 240.011719 L 217.480469 241.785156 L 218.375 243.296875 L 219.273438 244.542969 L 220.167969 245.53125 L 221.066406 246.269531 L 221.960938 246.769531 L 222.859375 247 L 223.757812 247.03125 L 224.652344 246.886719 L 225.550781 246.589844 L 226.445312 246.160156 L 227.34375 245.628906 L 228.238281 245.015625 L 229.136719 244.355469 L 230.03125 243.6875 L 230.929688 243.035156 L 231.824219 242.421875 L 232.722656 241.871094 L 233.617188 241.40625 L 234.515625 241.054688 L 235.414062 240.839844 L 236.308594 240.753906 L 237.207031 240.804688 L 238.101562 241 L 239 241.328125 L 239.894531 241.796875 L 240.792969 242.410156 L 241.6875 243.140625 L 242.585938 243.96875 L 243.480469 244.878906 L 244.378906 245.851562 L 245.273438 246.875 L 246.171875 247.933594 L 247.070312 249.003906 L 247.964844 250.066406 L 248.863281 251.109375 L 249.757812 252.117188 L 250.65625 253.082031 L 251.550781 253.996094 L 252.449219 254.84375 L 253.34375 255.621094 L 254.242188 256.328125 L 255.136719 256.964844 L 256.035156 257.535156 L 256.929688 258.039062 L 257.828125 258.480469 L 258.726562 258.847656 L 259.621094 259.160156 L 260.519531 259.417969 L 261.414062 259.625 L 262.3125 259.789062 L 263.207031 259.910156 L 264.105469 259.992188 L 265 260.027344 L 265.898438 260.03125 L 266.792969 259.996094 L 267.691406 259.929688 L 268.585938 259.832031 L 269.484375 259.699219 L 270.382812 259.527344 L 271.277344 259.316406 L 272.175781 259.070312 L 273.070312 258.789062 L 273.96875 258.46875 L 274.863281 258.117188 L 275.761719 257.726562 L 276.65625 257.296875 L 277.554688 256.835938 L 278.449219 256.347656 L 279.347656 255.839844 L 280.242188 255.3125 L 281.140625 254.78125 L 282.039062 254.242188 L 282.933594 253.714844 L 283.832031 253.203125 L 284.726562 252.71875 L 285.625 252.269531 L 286.519531 251.863281 L 287.417969 251.507812 L 288.3125 251.210938 L 289.210938 250.992188 L 290.105469 250.84375 L 291.003906 250.765625 L 291.898438 250.761719 L 292.796875 250.828125 L 293.695312 250.964844 L 294.589844 251.171875 L 295.488281 251.4375 L 296.382812 251.753906 L 297.28125 252.109375 L 298.175781 252.488281 L 299.074219 252.886719 L 299.96875 253.292969 L 300.867188 253.691406 L 301.761719 254.070312 L 302.660156 254.414062 L 303.558594 254.722656 L 304.453125 254.984375 L 305.351562 255.191406 L 306.246094 255.332031 L 307.144531 255.402344 L 308.039062 255.402344 L 308.9375 255.335938 L 309.832031 255.207031 L 310.730469 255.015625 L 311.625 254.769531 L 312.523438 254.464844 L 313.417969 254.121094 L 314.316406 253.742188 L 315.214844 253.347656 L 316.109375 252.945312 L 317.007812 252.542969 L 317.902344 252.15625 L 318.800781 251.796875 L 319.695312 251.480469 L 320.59375 251.210938 L 321.488281 250.996094 L 322.386719 250.84375 L 323.28125 250.761719 L 324.179688 250.75 L 325.074219 250.824219 L 325.972656 250.972656 L 326.871094 251.1875 L 327.765625 251.46875 L 328.664062 251.808594 L 329.558594 252.207031 L 330.457031 252.648438 L 331.351562 253.132812 L 332.25 253.644531 L 333.144531 254.171875 L 334.042969 254.707031 L 334.9375 255.242188 L 335.835938 255.773438 L 336.730469 256.285156 L 337.628906 256.773438 L 338.527344 257.238281 L 339.421875 257.675781 L 340.320312 258.078125 L 341.214844 258.445312 L 342.113281 258.78125 L 343.007812 259.078125 L 343.90625 259.339844 L 344.800781 259.570312 L 345.699219 259.773438 L 346.59375 259.945312 L 347.492188 260.09375 L 348.386719 260.21875 L 349.285156 260.324219 L 350.183594 260.410156 L 351.078125 260.480469 L 351.976562 260.535156 L 352.871094 260.582031 L 353.769531 260.621094 L 354.664062 260.652344 L 355.5625 260.671875 L 356.457031 260.691406 L 357.355469 260.703125 L 358.25 260.714844 L 359.148438 260.722656 L 360.042969 260.730469 L 361.839844 260.738281 L 362.734375 260.738281 L 363.632812 260.742188 L 365.425781 260.742188 L 366.320312 260.746094 L 481.089844 260.746094 Z M 22.910156 260.746094 "/>
<path style="fill:none;stroke-width:2.133957;stroke-linecap:round;stroke-linejoin:round;stroke:rgb(100%,100%,100%);stroke-opacity:1;stroke-miterlimit:10;" d="M 22.910156 260.746094 L 124.230469 260.746094 L 125.125 260.742188 L 127.816406 260.742188 L 128.710938 260.738281 L 129.609375 260.734375 L 130.503906 260.730469 L 132.300781 260.714844 L 133.195312 260.707031 L 134.09375 260.691406 L 134.988281 260.671875 L 135.886719 260.644531 L 136.78125 260.613281 L 137.679688 260.574219 L 138.574219 260.519531 L 139.472656 260.449219 L 140.367188 260.363281 L 141.265625 260.257812 L 142.160156 260.128906 L 143.058594 259.972656 L 143.957031 259.78125 L 144.851562 259.546875 L 145.75 259.265625 L 146.644531 258.9375 L 147.542969 258.550781 L 148.4375 258.105469 L 149.335938 257.589844 L 150.230469 256.996094 L 151.128906 256.3125 L 152.023438 255.546875 L 152.921875 254.695312 L 153.816406 253.75 L 154.714844 252.714844 L 155.613281 251.582031 L 156.507812 250.347656 L 157.40625 249.015625 L 158.300781 247.597656 L 159.199219 246.09375 L 160.09375 244.515625 L 160.992188 242.867188 L 161.886719 241.15625 L 162.785156 239.375 L 163.679688 237.554688 L 164.578125 235.691406 L 165.472656 233.796875 L 166.371094 231.882812 L 167.269531 229.945312 L 168.164062 227.996094 L 169.0625 226.035156 L 169.957031 224.066406 L 170.855469 222.09375 L 171.75 220.113281 L 172.648438 218.128906 L 173.542969 216.128906 L 174.441406 214.121094 L 175.335938 212.09375 L 176.234375 210.046875 L 177.128906 207.980469 L 178.027344 205.894531 L 178.925781 203.785156 L 179.820312 201.660156 L 180.71875 199.515625 L 181.613281 197.367188 L 182.511719 195.222656 L 183.40625 193.09375 L 184.304688 190.996094 L 185.199219 188.945312 L 186.097656 186.960938 L 186.992188 185.089844 L 187.890625 183.339844 L 188.785156 181.734375 L 189.683594 180.304688 L 190.582031 179.070312 L 191.476562 178.054688 L 192.375 177.320312 L 193.269531 176.890625 L 194.167969 176.753906 L 195.0625 176.929688 L 195.960938 177.425781 L 196.855469 178.25 L 197.753906 179.40625 L 198.648438 180.949219 L 199.546875 182.820312 L 200.441406 184.992188 L 201.339844 187.445312 L 202.238281 190.15625 L 203.132812 193.101562 L 204.03125 196.253906 L 204.925781 199.597656 L 205.824219 203.054688 L 206.71875 206.585938 L 207.617188 210.160156 L 208.511719 213.734375 L 209.410156 217.277344 L 210.304688 220.734375 L 211.203125 224.0625 L 212.101562 227.242188 L 212.996094 230.242188 L 213.894531 233.042969 L 214.789062 235.621094 L 215.6875 237.960938 L 216.582031 240.011719 L 217.480469 241.785156 L 218.375 243.296875 L 219.273438 244.542969 L 220.167969 245.53125 L 221.066406 246.269531 L 221.960938 246.769531 L 222.859375 247 L 223.757812 247.03125 L 224.652344 246.886719 L 225.550781 246.589844 L 226.445312 246.160156 L 227.34375 245.628906 L 228.238281 245.015625 L 229.136719 244.355469 L 230.03125 243.6875 L 230.929688 243.035156 L 231.824219 242.421875 L 232.722656 241.871094 L 233.617188 241.40625 L 234.515625 241.054688 L 235.414062 240.839844 L 236.308594 240.753906 L 237.207031 240.804688 L 238.101562 241 L 239 241.328125 L 239.894531 241.796875 L 240.792969 242.410156 L 241.6875 243.140625 L 242.585938 243.96875 L 243.480469 244.878906 L 244.378906 245.851562 L 245.273438 246.875 L 246.171875 247.933594 L 247.070312 249.003906 L 247.964844 250.066406 L 248.863281 251.109375 L 249.757812 252.117188 L 250.65625 253.082031 L 251.550781 253.996094 L 252.449219 254.84375 L 253.34375 255.621094 L 254.242188 256.328125 L 255.136719 256.964844 L 256.035156 257.535156 L 256.929688 258.039062 L 257.828125 258.480469 L 258.726562 258.847656 L 259.621094 259.160156 L 260.519531 259.417969 L 261.414062 259.625 L 262.3125 259.789062 L 263.207031 259.910156 L 264.105469 259.992188 L 265 260.027344 L 265.898438 260.03125 L 266.792969 259.996094 L 267.691406 259.929688 L 268.585938 259.832031 L 269.484375 259.699219 L 270.382812 259.527344 L 271.277344 259.316406 L 272.175781 259.070312 L 273.070312 258.789062 L 273.96875 258.46875 L 274.863281 258.117188 L 275.761719 257.726562 L 276.65625 257.296875 L 277.554688 256.835938 L 278.449219 256.347656 L 279.347656 255.839844 L 280.242188 255.3125 L 281.140625 254.78125 L 282.039062 254.242188 L 282.933594 253.714844 L 283.832031 253.203125 L 284.726562 252.71875 L 285.625 252.269531 L 286.519531 251.863281 L 287.417969 251.507812 L 288.3125 251.210938 L 289.210938 250.992188 L 290.105469 250.84375 L 291.003906 250.765625 L 291.898438 250.761719 L 292.796875 250.828125 L 293.695312 250.964844 L 294.589844 251.171875 L 295.488281 251.4375 L 296.382812 251.753906 L 297.28125 252.109375 L 298.175781 252.488281 L 299.074219 252.886719 L 299.96875 253.292969 L 300.867188 253.691406 L 301.761719 254.070312 L 302.660156 254.414062 L 303.558594 254.722656 L 304.453125 254.984375 L 305.351562 255.191406 L 306.246094 255.332031 L 307.144531 255.402344 L 308.039062 255.402344 L 308.9375 255.335938 L 309.832031 255.207031 L 310.730469 255.015625 L 311.625 254.769531 L 312.523438 254.464844 L 313.417969 254.121094 L 314.316406 253.742188 L 315.214844 253.347656 L 316.109375 252.945312 L 317.007812 252.542969 L 317.902344 252.15625 L 318.800781 251.796875 L 319.695312 251.480469 L 320.59375 251.210938 L 321.488281 250.996094 L 322.386719 250.84375 L 323.28125 250.761719 L 324.179688 250.75 L 325.074219 250.824219 L 325.972656 250.972656 L 326.871094 251.1875 L 327.765625 251.46875 L 328.664062 251.808594 L 329.558594 252.207031 L 330.457031 252.648438 L 331.351562 253.132812 L 332.25 253.644531 L 333.144531 254.171875 L 334.042969 254.707031 L 334.9375 255.242188 L 335.835938 255.773438 L 336.730469 256.285156 L 337.628906 256.773438 L 338.527344 257.238281 L 339.421875 257.675781 L 340.320312 258.078125 L 341.214844 258.445312 L 342.113281 258.78125 L 343.007812 259.078125 L 343.90625 259.339844 L 344.800781 259.570312 L 345.699219 259.773438 L 346.59375 259.945312 L 347.492188 260.09375 L 348.386719 260.21875 L 349.285156 260.324219 L 350.183594 260.410156 L 351.078125 260.480469 L 351.976562 260.535156 L 352.871094 260.582031 L 353.769531 260.621094 L 354.664062 260.652344 L 355.5625 260.671875 L 356.457031 260.691406 L 357.355469 260.703125 L 358.25 260.714844 L 359.148438 260.722656 L 360.042969 260.730469 L 361.839844 260.738281 L 362.734375 260.738281 L 363.632812 260.742188 L 365.425781 260.742188 L 366.320312 260.746094 L 481.089844 260.746094 "/>
<path style=" stroke:none;fill-rule:nonzero;fill:rgb(0%,0%,0%);fill-opacity:1;" d="M 22.910156 343.636719 L 103.605469 343.636719 L 104.503906 343.632812 L 106.296875 343.632812 L 107.191406 343.628906 L 108.089844 343.628906 L 108.984375 343.625 L 109.882812 343.617188 L 110.78125 343.613281 L 111.675781 343.601562 L 112.574219 343.589844 L 113.46875 343.578125 L 114.367188 343.554688 L 115.261719 343.527344 L 116.160156 343.496094 L 117.054688 343.453125 L 117.953125 343.398438 L 118.847656 343.332031 L 119.746094 343.25 L 120.644531 343.144531 L 121.539062 343.019531 L 122.4375 342.867188 L 123.332031 342.683594 L 124.230469 342.472656 L 125.125 342.226562 L 126.023438 341.9375 L 126.917969 341.601562 L 127.816406 341.21875 L 128.710938 340.789062 L 129.609375 340.308594 L 130.503906 339.785156 L 131.402344 339.210938 L 132.300781 338.585938 L 133.195312 337.917969 L 134.09375 337.214844 L 134.988281 336.480469 L 135.886719 335.726562 L 136.78125 334.960938 L 137.679688 334.191406 L 138.574219 333.433594 L 139.472656 332.703125 L 140.367188 332.003906 L 141.265625 331.355469 L 142.160156 330.757812 L 143.058594 330.226562 L 143.957031 329.769531 L 144.851562 329.40625 L 145.75 329.121094 L 146.644531 328.917969 L 147.542969 328.789062 L 148.4375 328.726562 L 149.335938 328.730469 L 150.230469 328.785156 L 151.128906 328.871094 L 152.023438 328.972656 L 152.921875 329.070312 L 153.816406 329.144531 L 154.714844 329.175781 L 155.613281 329.144531 L 156.507812 329.023438 L 157.40625 328.800781 L 158.300781 328.464844 L 159.199219 328.007812 L 160.09375 327.421875 L 160.992188 326.707031 L 161.886719 325.855469 L 162.785156 324.851562 L 163.679688 323.730469 L 164.578125 322.5 L 165.472656 321.175781 L 166.371094 319.769531 L 167.269531 318.296875 L 168.164062 316.773438 L 169.0625 315.222656 L 169.957031 313.65625 L 170.855469 312.09375 L 171.75 310.542969 L 172.648438 309.015625 L 173.542969 307.511719 L 174.441406 306.042969 L 175.335938 304.601562 L 176.234375 303.183594 L 177.128906 301.78125 L 178.027344 300.382812 L 178.925781 298.980469 L 179.820312 297.5625 L 180.71875 296.113281 L 181.613281 294.628906 L 182.511719 293.097656 L 183.40625 291.519531 L 184.304688 289.898438 L 185.199219 288.234375 L 186.097656 286.535156 L 186.992188 284.8125 L 187.890625 283.09375 L 188.785156 281.398438 L 189.683594 279.75 L 190.582031 278.171875 L 191.476562 276.695312 L 192.375 275.367188 L 193.269531 274.21875 L 194.167969 273.269531 L 195.0625 272.535156 L 195.960938 272.042969 L 196.855469 271.808594 L 197.753906 271.851562 L 198.648438 272.226562 L 199.546875 272.902344 L 200.441406 273.871094 L 201.339844 275.121094 L 202.238281 276.648438 L 203.132812 278.4375 L 204.03125 280.476562 L 204.925781 282.78125 L 205.824219 285.273438 L 206.71875 287.929688 L 207.617188 290.730469 L 208.511719 293.636719 L 209.410156 296.628906 L 210.304688 299.675781 L 211.203125 302.742188 L 212.101562 305.792969 L 212.996094 308.804688 L 213.894531 311.753906 L 214.789062 314.625 L 215.6875 317.390625 L 216.582031 320.015625 L 217.480469 322.5 L 218.375 324.835938 L 219.273438 327.015625 L 220.167969 329.039062 L 221.066406 330.902344 L 221.960938 332.605469 L 222.859375 334.113281 L 223.757812 335.472656 L 224.652344 336.6875 L 225.550781 337.761719 L 226.445312 338.707031 L 227.34375 339.535156 L 228.238281 340.242188 L 229.136719 340.835938 L 230.03125 341.34375 L 230.929688 341.773438 L 231.824219 342.136719 L 232.722656 342.4375 L 233.617188 342.683594 L 234.515625 342.878906 L 235.414062 343.035156 L 236.308594 343.160156 L 237.207031 343.257812 L 238.101562 343.332031 L 239 343.382812 L 239.894531 343.417969 L 240.792969 343.433594 L 241.6875 343.433594 L 242.585938 343.421875 L 243.480469 343.390625 L 244.378906 343.347656 L 245.273438 343.285156 L 246.171875 343.203125 L 247.070312 343.097656 L 247.964844 342.96875 L 248.863281 342.8125 L 249.757812 342.625 L 250.65625 342.402344 L 251.550781 342.144531 L 252.449219 341.84375 L 253.34375 341.496094 L 254.242188 341.101562 L 255.136719 340.65625 L 256.035156 340.167969 L 256.929688 339.628906 L 257.828125 339.042969 L 258.726562 338.40625 L 259.621094 337.726562 L 260.519531 337.015625 L 261.414062 336.28125 L 262.3125 335.527344 L 263.207031 334.769531 L 264.105469 334.011719 L 265 333.273438 L 265.898438 332.570312 L 266.792969 331.910156 L 267.691406 331.304688 L 268.585938 330.765625 L 269.484375 330.304688 L 270.382812 329.941406 L 271.277344 329.683594 L 272.175781 329.523438 L 273.070312 329.464844 L 273.96875 329.511719 L 274.863281 329.652344 L 275.761719 329.886719 L 276.65625 330.21875 L 277.554688 330.625 L 278.449219 331.085938 L 279.347656 331.59375 L 280.242188 332.128906 L 281.140625 332.675781 L 282.039062 333.21875 L 282.933594 333.738281 L 283.832031 334.21875 L 284.726562 334.644531 L 285.625 335.003906 L 286.519531 335.289062 L 287.417969 335.492188 L 288.3125 335.601562 L 289.210938 335.605469 L 290.105469 335.515625 L 291.003906 335.335938 L 291.898438 335.070312 L 292.796875 334.730469 L 293.695312 334.316406 L 294.589844 333.84375 L 295.488281 333.328125 L 296.382812 332.789062 L 297.28125 332.242188 L 298.175781 331.703125 L 299.074219 331.1875 L 299.96875 330.710938 L 300.867188 330.300781 L 301.761719 329.960938 L 302.660156 329.703125 L 303.558594 329.535156 L 304.453125 329.464844 L 305.351562 329.496094 L 306.246094 329.628906 L 307.144531 329.882812 L 308.039062 330.230469 L 308.9375 330.667969 L 309.832031 331.1875 L 310.730469 331.773438 L 311.625 332.421875 L 312.523438 333.121094 L 313.417969 333.855469 L 314.316406 334.609375 L 315.214844 335.367188 L 316.109375 336.125 L 317.007812 336.867188 L 317.902344 337.585938 L 318.800781 338.265625 L 319.695312 338.90625 L 320.59375 339.503906 L 321.488281 340.054688 L 322.386719 340.558594 L 323.28125 341.015625 L 324.179688 341.421875 L 325.074219 341.773438 L 325.972656 342.082031 L 326.871094 342.351562 L 327.765625 342.585938 L 328.664062 342.78125 L 329.558594 342.949219 L 330.457031 343.085938 L 331.351562 343.199219 L 332.25 343.289062 L 333.144531 343.367188 L 334.042969 343.425781 L 334.9375 343.476562 L 335.835938 343.515625 L 336.730469 343.542969 L 337.628906 343.566406 L 338.527344 343.585938 L 339.421875 343.597656 L 340.320312 343.609375 L 341.214844 343.617188 L 342.113281 343.621094 L 343.007812 343.625 L 343.90625 343.628906 L 344.800781 343.632812 L 347.492188 343.632812 L 348.386719 343.636719 L 407.566406 343.636719 L 408.464844 343.632812 L 410.257812 343.632812 L 411.152344 343.628906 L 412.050781 343.628906 L 412.945312 343.625 L 413.84375 343.621094 L 414.738281 343.613281 L 415.636719 343.605469 L 416.53125 343.59375 L 417.429688 343.582031 L 418.328125 343.5625 L 419.222656 343.539062 L 420.121094 343.507812 L 421.015625 343.46875 L 421.914062 343.417969 L 422.808594 343.351562 L 423.707031 343.273438 L 424.601562 343.179688 L 425.5 343.0625 L 426.394531 342.921875 L 427.292969 342.75 L 428.1875 342.542969 L 429.085938 342.304688 L 429.984375 342.027344 L 430.878906 341.710938 L 431.777344 341.347656 L 432.671875 340.933594 L 433.570312 340.46875 L 434.464844 339.957031 L 435.363281 339.394531 L 436.257812 338.789062 L 437.15625 338.136719 L 438.050781 337.449219 L 438.949219 336.726562 L 439.84375 335.984375 L 441.640625 334.46875 L 442.535156 333.71875 L 443.433594 332.992188 L 444.328125 332.300781 L 445.226562 331.664062 L 446.121094 331.097656 L 447.019531 330.601562 L 447.914062 330.191406 L 448.8125 329.875 L 449.707031 329.660156 L 450.605469 329.554688 L 451.5 329.574219 L 452.398438 329.703125 L 453.296875 329.933594 L 454.191406 330.261719 L 455.089844 330.6875 L 455.984375 331.195312 L 456.882812 331.78125 L 457.777344 332.433594 L 458.675781 333.132812 L 459.570312 333.863281 L 460.46875 334.613281 L 461.363281 335.371094 L 462.261719 336.128906 L 463.15625 336.867188 L 464.054688 337.582031 L 464.953125 338.265625 L 465.847656 338.90625 L 466.746094 339.507812 L 467.640625 340.0625 L 468.539062 340.566406 L 469.433594 341.015625 L 470.332031 341.417969 L 471.226562 341.773438 L 472.125 342.082031 L 473.019531 342.355469 L 473.917969 342.589844 L 474.8125 342.785156 L 475.710938 342.949219 L 476.609375 343.082031 L 477.503906 343.199219 L 478.402344 343.289062 L 479.296875 343.367188 L 480.195312 343.429688 L 481.089844 343.476562 L 481.089844 343.636719 Z M 22.910156 343.636719 "/>
<path style="fill:none;stroke-width:2.133957;stroke-linecap:round;stroke-linejoin:round;stroke:rgb(100%,100%,100%);stroke-opacity:1;stroke-miterlimit:10;" d="M 22.910156 343.636719 L 103.605469 343.636719 L 104.503906 343.632812 L 106.296875 343.632812 L 107.191406 343.628906 L 108.089844 343.628906 L 108.984375 343.625 L 109.882812 343.617188 L 110.78125 343.613281 L 111.675781 343.601562 L 112.574219 343.589844 L 113.46875 343.578125 L 114.367188 343.554688 L 115.261719 343.527344 L 116.160156 343.496094 L 117.054688 343.453125 L 117.953125 343.398438 L 118.847656 343.332031 L 119.746094 343.25 L 120.644531 343.144531 L 121.539062 343.019531 L 122.4375 342.867188 L 123.332031 342.683594 L 124.230469 342.472656 L 125.125 342.226562 L 126.023438 341.9375 L 126.917969 341.601562 L 127.816406 341.21875 L 128.710938 340.789062 L 129.609375 340.308594 L 130.503906 339.785156 L 131.402344 339.210938 L 132.300781 338.585938 L 133.195312 337.917969 L 134.09375 337.214844 L 134.988281 336.480469 L 135.886719 335.726562 L 136.78125 334.960938 L 137.679688 334.191406 L 138.574219 333.433594 L 139.472656 332.703125 L 140.367188 332.003906 L 141.265625 331.355469 L 142.160156 330.757812 L 143.058594 330.226562 L 143.957031 329.769531 L 144.851562 329.40625 L 145.75 329.121094 L 146.644531 328.917969 L 147.542969 328.789062 L 148.4375 328.726562 L 149.335938 328.730469 L 150.230469 328.785156 L 151.128906 328.871094 L 152.023438 328.972656 L 152.921875 329.070312 L 153.816406 329.144531 L 154.714844 329.175781 L 155.613281 329.144531 L 156.507812 329.023438 L 157.40625 328.800781 L 158.300781 328.464844 L 159.199219 328.007812 L 160.09375 327.421875 L 160.992188 326.707031 L 161.886719 325.855469 L 162.785156 324.851562 L 163.679688 323.730469 L 164.578125 322.5 L 165.472656 321.175781 L 166.371094 319.769531 L 167.269531 318.296875 L 168.164062 316.773438 L 169.0625 315.222656 L 169.957031 313.65625 L 170.855469 312.09375 L 171.75 310.542969 L 172.648438 309.015625 L 173.542969 307.511719 L 174.441406 306.042969 L 175.335938 304.601562 L 176.234375 303.183594 L 177.128906 301.78125 L 178.027344 300.382812 L 178.925781 298.980469 L 179.820312 297.5625 L 180.71875 296.113281 L 181.613281 294.628906 L 182.511719 293.097656 L 183.40625 291.519531 L 184.304688 289.898438 L 185.199219 288.234375 L 186.097656 286.535156 L 186.992188 284.8125 L 187.890625 283.09375 L 188.785156 281.398438 L 189.683594 279.75 L 190.582031 278.171875 L 191.476562 276.695312 L 192.375 275.367188 L 193.269531 274.21875 L 194.167969 273.269531 L 195.0625 272.535156 L 195.960938 272.042969 L 196.855469 271.808594 L 197.753906 271.851562 L 198.648438 272.226562 L 199.546875 272.902344 L 200.441406 273.871094 L 201.339844 275.121094 L 202.238281 276.648438 L 203.132812 278.4375 L 204.03125 280.476562 L 204.925781 282.78125 L 205.824219 285.273438 L 206.71875 287.929688 L 207.617188 290.730469 L 208.511719 293.636719 L 209.410156 296.628906 L 210.304688 299.675781 L 211.203125 302.742188 L 212.101562 305.792969 L 212.996094 308.804688 L 213.894531 311.753906 L 214.789062 314.625 L 215.6875 317.390625 L 216.582031 320.015625 L 217.480469 322.5 L 218.375 324.835938 L 219.273438 327.015625 L 220.167969 329.039062 L 221.066406 330.902344 L 221.960938 332.605469 L 222.859375 334.113281 L 223.757812 335.472656 L 224.652344 336.6875 L 225.550781 337.761719 L 226.445312 338.707031 L 227.34375 339.535156 L 228.238281 340.242188 L 229.136719 340.835938 L 230.03125 341.34375 L 230.929688 341.773438 L 231.824219 342.136719 L 232.722656 342.4375 L 233.617188 342.683594 L 234.515625 342.878906 L 235.414062 343.035156 L 236.308594 343.160156 L 237.207031 343.257812 L 238.101562 343.332031 L 239 343.382812 L 239.894531 343.417969 L 240.792969 343.433594 L 241.6875 343.433594 L 242.585938 343.421875 L 243.480469 343.390625 L 244.378906 343.347656 L 245.273438 343.285156 L 246.171875 343.203125 L 247.070312 343.097656 L 247.964844 342.96875 L 248.863281 342.8125 L 249.757812 342.625 L 250.65625 342.402344 L 251.550781 342.144531 L 252.449219 341.84375 L 253.34375 341.496094 L 254.242188 341.101562 L 255.136719 340.65625 L 256.035156 340.167969 L 256.929688 339.628906 L 257.828125 339.042969 L 258.726562 338.40625 L 259.621094 337.726562 L 260.519531 337.015625 L 261.414062 336.28125 L 262.3125 335.527344 L 263.207031 334.769531 L 264.105469 334.011719 L 265 333.273438 L 265.898438 332.570312 L 266.792969 331.910156 L 267.691406 331.304688 L 268.585938 330.765625 L 269.484375 330.304688 L 270.382812 329.941406 L 271.277344 329.683594 L 272.175781 329.523438 L 273.070312 329.464844 L 273.96875 329.511719 L 274.863281 329.652344 L 275.761719 329.886719 L 276.65625 330.21875 L 277.554688 330.625 L 278.449219 331.085938 L 279.347656 331.59375 L 280.242188 332.128906 L 281.140625 332.675781 L 282.039062 333.21875 L 282.933594 333.738281 L 283.832031 334.21875 L 284.726562 334.644531 L 285.625 335.003906 L 286.519531 335.289062 L 287.417969 335.492188 L 288.3125 335.601562 L 289.210938 335.605469 L 290.105469 335.515625 L 291.003906 335.335938 L 291.898438 335.070312 L 292.796875 334.730469 L 293.695312 334.316406 L 294.589844 333.84375 L 295.488281 333.328125 L 296.382812 332.789062 L 297.28125 332.242188 L 298.175781 331.703125 L 299.074219 331.1875 L 299.96875 330.710938 L 300.867188 330.300781 L 301.761719 329.960938 L 302.660156 329.703125 L 303.558594 329.535156 L 304.453125 329.464844 L 305.351562 329.496094 L 306.246094 329.628906 L 307.144531 329.882812 L 308.039062 330.230469 L 308.9375 330.667969 L 309.832031 331.1875 L 310.730469 331.773438 L 311.625 332.421875 L 312.523438 333.121094 L 313.417969 333.855469 L 314.316406 334.609375 L 315.214844 335.367188 L 316.109375 336.125 L 317.007812 336.867188 L 317.902344 337.585938 L 318.800781 338.265625 L 319.695312 338.90625 L 320.59375 339.503906 L 321.488281 340.054688 L 322.386719 340.558594 L 323.28125 341.015625 L 324.179688 341.421875 L 325.074219 341.773438 L 325.972656 342.082031 L 326.871094 342.351562 L 327.765625 342.585938 L 328.664062 342.78125 L 329.558594 342.949219 L 330.457031 343.085938 L 331.351562 343.199219 L 332.25 343.289062 L 333.144531 343.367188 L 334.042969 343.425781 L 334.9375 343.476562 L 335.835938 343.515625 L 336.730469 343.542969 L 337.628906 343.566406 L 338.527344 343.585938 L 339.421875 343.597656 L 340.320312 343.609375 L 341.214844 343.617188 L 342.113281 343.621094 L 343.007812 343.625 L 343.90625 343.628906 L 344.800781 343.632812 L 347.492188 343.632812 L 348.386719 343.636719 L 407.566406 343.636719 L 408.464844 343.632812 L 410.257812 343.632812 L 411.152344 343.628906 L 412.050781 343.628906 L 412.945312 343.625 L 413.84375 343.621094 L 414.738281 343.613281 L 415.636719 343.605469 L 416.53125 343.59375 L 417.429688 343.582031 L 418.328125 343.5625 L 419.222656 343.539062 L 420.121094 343.507812 L 421.015625 343.46875 L 421.914062 343.417969 L 422.808594 343.351562 L 423.707031 343.273438 L 424.601562 343.179688 L 425.5 343.0625 L 426.394531 342.921875 L 427.292969 342.75 L 428.1875 342.542969 L 429.085938 342.304688 L 429.984375 342.027344 L 430.878906 341.710938 L 431.777344 341.347656 L 432.671875 340.933594 L 433.570312 340.46875 L 434.464844 339.957031 L 435.363281 339.394531 L 436.257812 338.789062 L 437.15625 338.136719 L 438.050781 337.449219 L 438.949219 336.726562 L 439.84375 335.984375 L 441.640625 334.46875 L 442.535156 333.71875 L 443.433594 332.992188 L 444.328125 332.300781 L 445.226562 331.664062 L 446.121094 331.097656 L 447.019531 330.601562 L 447.914062 330.191406 L 448.8125 329.875 L 449.707031 329.660156 L 450.605469 329.554688 L 451.5 329.574219 L 452.398438 329.703125 L 453.296875 329.933594 L 454.191406 330.261719 L 455.089844 330.6875 L 455.984375 331.195312 L 456.882812 331.78125 L 457.777344 332.433594 L 458.675781 333.132812 L 459.570312 333.863281 L 460.46875 334.613281 L 461.363281 335.371094 L 462.261719 336.128906 L 463.15625 336.867188 L 464.054688 337.582031 L 464.953125 338.265625 L 465.847656 338.90625 L 466.746094 339.507812 L 467.640625 340.0625 L 468.539062 340.566406 L 469.433594 341.015625 L 470.332031 341.417969 L 471.226562 341.773438 L 472.125 342.082031 L 473.019531 342.355469 L 473.917969 342.589844 L 474.8125 342.785156 L 475.710938 342.949219 L 476.609375 343.082031 L 477.503906 343.199219 L 478.402344 343.289062 L 479.296875 343.367188 L 480.195312 343.429688 L 481.089844 343.476562 "/>
</g>
</svg>
